<svg width="140" height="156" viewBox="0 0 140 156" fill="none" xmlns="http://www.w3.org/2000/svg">
<path fill-rule="evenodd" clip-rule="evenodd" d="M54.931 46.0393C47.7368 38.7264 39.9799 31.6243 37.4023 32.0967C34.2901 32.667 30.8932 47.3291 28.6567 59.0813C20.7219 66.3087 15.9319 75.6832 15.9319 85.9268C15.9319 108.787 39.7862 127.318 69.212 127.318C98.6378 127.318 122.492 108.787 122.492 85.9268C122.492 75.5631 117.589 66.089 109.487 58.828C107.25 47.1195 103.88 32.663 100.79 32.0967C98.2168 31.6252 90.4841 38.6998 83.3014 45.9983C78.8135 45.0448 74.0893 44.5357 69.212 44.5357C64.2653 44.5357 59.4759 45.0594 54.931 46.0393Z" fill="#E3A13F"/>
<g style="mix-blend-mode:multiply">
<path fill-rule="evenodd" clip-rule="evenodd" d="M54.9397 46.0375C52.7938 51.9181 51.1248 58.911 54.8034 59.9621C59.6706 61.3527 61.4173 56.2423 61.9886 53.5782C61.6207 56.7112 61.6659 63.575 69.2121 63.2156C76.0195 62.8914 76.4966 57.5934 76.1621 54.4171C76.9154 57.2818 78.8585 61.5494 83.6207 59.9621C87.5533 58.6512 85.7184 51.7207 83.3713 45.9273C83.348 45.951 83.3247 45.9747 83.3014 45.9983C78.8135 45.0448 74.0893 44.5357 69.2121 44.5357C64.2685 44.5357 59.4821 45.0588 54.9397 46.0375Z" fill="#DADADA"/>
</g>
<path d="M118.684 90.2463C125.01 87.9837 126.106 87.6051 132.881 86.3976" stroke="#333333" stroke-width="1.76133" stroke-linecap="round" stroke-linejoin="round"/>
<path d="M117.68 103.015C124.263 104.752 127.006 105.913 133.875 106.546" stroke="#333333" stroke-width="1.76133" stroke-linecap="round" stroke-linejoin="round"/>
<path d="M118.48 96.8264C124.531 97.1825 126.541 96.4692 132.583 95.7121" stroke="#333333" stroke-width="1.76133" stroke-linecap="round" stroke-linejoin="round"/>
<path d="M21.3162 90.2463C14.9897 87.9837 13.8933 87.6051 7.1188 86.3976" stroke="#333333" stroke-width="1.76133" stroke-linecap="round" stroke-linejoin="round"/>
<path d="M22.3199 103.015C15.7368 104.752 12.9938 105.913 6.12467 106.546" stroke="#333333" stroke-width="1.76133" stroke-linecap="round" stroke-linejoin="round"/>
<path d="M21.5195 96.8264C15.4688 97.1825 13.4591 96.4692 7.41681 95.7121" stroke="#333333" stroke-width="1.76133" stroke-linecap="round" stroke-linejoin="round"/>
<circle cx="46.4371" cy="81.1697" r="10.6903" fill="white"/>
<mask id="mask0_36_464" style="mask-type:alpha" maskUnits="userSpaceOnUse" x="35" y="70" width="23" height="22">
<circle cx="46.4371" cy="81.1697" r="10.6903" fill="white"/>
</mask>
<g mask="url(#mask0_36_464)">
<circle cx="48.2963" cy="78.381" r="9.76068" fill="#333333"/>
</g>
<circle cx="49.813" cy="75.2497" r="1.98149" fill="white"/>
<circle cx="10.6903" cy="10.6903" r="10.6903" transform="matrix(-1 0 0 1 104.536 70.4794)" fill="white"/>
<mask id="mask1_36_464" style="mask-type:alpha" maskUnits="userSpaceOnUse" x="83" y="70" width="22" height="22">
<circle cx="10.6903" cy="10.6903" r="10.6903" transform="matrix(-1 0 0 1 104.536 70.4794)" fill="white"/>
</mask>
<g mask="url(#mask1_36_464)">
<circle cx="9.76068" cy="9.76068" r="9.76068" transform="matrix(-1 0 0 1 101.748 68.6203)" fill="#333333"/>
</g>
<circle cx="1.98149" cy="1.98149" r="1.98149" transform="matrix(-1 0 0 1 92.4517 73.2682)" fill="white"/>
<ellipse cx="69.5" cy="97.5" rx="18.5" ry="13.5" fill="white" fill-opacity="0.25"/>
<path d="M74.0068 92.3361C74.0068 94.0384 72.0354 95.4185 69.6035 95.4185C67.1716 95.4185 65.2002 94.0384 65.2002 92.3361C65.2002 90.6338 67.1716 88.8135 69.6035 88.8135C72.0354 88.8135 74.0068 90.6338 74.0068 92.3361Z" fill="#333333"/>
<path d="M69.6034 91.0151V97.1798C69.6034 99.1253 68.0263 100.702 66.0808 100.702H64.9799C63.6424 100.702 62.5581 99.6181 62.5581 98.2806V98.2806" stroke="#323232" stroke-width="1.32099" stroke-linecap="round" stroke-linejoin="round"/>
<path d="M69.6034 91.0151V97.1798C69.6034 99.1253 71.1805 100.702 73.126 100.702H74.2269C75.5644 100.702 76.6487 99.6181 76.6487 98.2806V98.2806" stroke="#323232" stroke-width="1.32099" stroke-linecap="round" stroke-linejoin="round"/>
<path d="M32.9867 55.5758C34.2869 49.1415 35.5456 44.8142 38.1519 38.159C38.3507 37.6513 38.9625 37.4463 39.4253 37.7344C44.4747 40.8776 47.2522 43.2855 51.0819 47.4084C51.5254 47.8859 51.3063 48.6621 50.6804 48.8438C44.0553 50.767 39.9386 52.0465 34.4599 56.4423C33.8054 56.9674 32.8205 56.3983 32.9867 55.5758Z" fill="#DADADA"/>
<path d="M104.319 54.9496C103.655 48.3536 103.024 44.432 100.284 37.682C100.08 37.1791 99.4689 36.9834 99.011 37.2747C94.4331 40.1866 91.8201 42.3483 87.5328 46.3567C87.0353 46.8219 87.234 47.6521 87.8866 47.8468C94.3907 49.7877 97.4689 51.1688 102.845 55.7092C103.456 56.2249 104.399 55.7448 104.319 54.9496Z" fill="#DADADA"/>
<circle cx="1.82108" cy="1.82108" r="1.82108" transform="matrix(-0.993492 0.113903 0.113903 0.993492 84.3647 30.2369)" fill="#FFC547"/>
<circle cx="1.82108" cy="1.82108" r="1.82108" transform="matrix(-0.993492 0.113903 0.113903 0.993492 73.5845 24.1408)" fill="#FFC547"/>
<circle cx="1.82108" cy="1.82108" r="1.82108" transform="matrix(-0.993492 0.113903 0.113903 0.993492 60.7566 26.8336)" fill="#FFC547"/>
<path d="M82.6645 36.9443L80.2447 48.6171C80.1301 49.1701 79.5431 49.4852 79.0156 49.2835C72.3485 46.7346 67.7754 45.823 60.5974 46.6923C60.0411 46.7596 59.5461 46.3235 59.5571 45.7633L59.8044 33.1836C59.8206 32.362 60.8309 31.9805 61.3861 32.5863L65.4389 37.009C65.8636 37.4724 66.6189 37.3764 66.9141 36.8214L70.5477 29.9899C70.9296 29.2719 71.9897 29.3767 72.2237 30.1556L74.7167 38.457C74.8852 39.018 75.5318 39.2763 76.0404 38.9858L81.3212 35.9689C82.0022 35.5799 82.8237 36.1764 82.6645 36.9443Z" fill="#FFC547"/>
<ellipse cx="42" cy="104" rx="6" ry="2" fill="#FFA787"/>
<ellipse cx="98" cy="104" rx="6" ry="2" fill="#FFA787"/>
<circle cx="41.7893" cy="79.3105" r="19.9862" stroke="#323232" stroke-width="1.85918"/>
<circle cx="97.5647" cy="79.3105" r="19.9862" stroke="#323232" stroke-width="1.85918"/>
<path d="M61.7754 77.7739C67.7276 76.7146 71.2208 76.7337 77.5784 77.7739V81.6345C71.5073 80.669 68.0455 80.6554 61.7754 81.6345V77.7739Z" fill="#242424"/>
</svg>
