<svg width="140" height="156" viewBox="0 0 140 156" fill="none" xmlns="http://www.w3.org/2000/svg">
<path d="M16.343 74.7377C21.0828 51.3322 35.0831 41.5175 51.5423 34.4938C52.1379 34.2397 52.8117 34.6158 52.9129 35.2554L66.8999 123.681C66.9609 124.067 66.7889 124.455 66.4636 124.671C51.4097 134.67 39.5886 141.026 23.1986 142.814C22.132 142.93 21.1698 142.158 21.1168 141.086C20.7977 134.637 23.065 129.168 25.7388 124.069C26.1966 123.196 25.2631 122.234 24.3849 122.681L17.2364 126.326C16.6554 126.622 15.9497 126.289 15.8257 125.649C14.2327 117.421 15.881 111.668 19.4195 104.088C19.8214 103.227 18.9204 102.322 18.0648 102.736L12.5683 105.39C11.8732 105.726 11.0778 105.177 11.1528 104.409C12.3522 92.126 15.7458 84.8578 24.6634 77.1622C25.4184 76.5106 24.9025 75.2261 23.9094 75.3182L17.4055 75.921C16.7456 75.9822 16.2114 75.3872 16.343 74.7377Z" fill="#4D3A2A"/>
<g style="mix-blend-mode:multiply">
<path fill-rule="evenodd" clip-rule="evenodd" d="M51.5424 34.4938C35.0832 41.5175 21.0829 51.3322 16.343 74.7377C16.2115 75.3872 16.7457 75.9822 17.4056 75.921L19.9615 75.6841C19.7036 75.4608 19.5622 75.1081 19.6372 74.7377C24.1924 52.244 37.3005 42.3029 52.9244 35.3281L52.9129 35.2554C52.8118 34.6158 52.138 34.2397 51.5424 34.4938ZM25.3003 142.556C24.7953 142.255 24.4425 141.723 24.411 141.086C24.0919 134.637 26.3592 129.168 29.033 124.069C29.4908 123.196 28.5573 122.234 27.6791 122.681L25.8592 123.609C25.8567 123.76 25.8192 123.916 25.7389 124.069C23.065 129.168 20.7978 134.637 21.1169 141.086C21.1699 142.158 22.1321 142.93 23.1986 142.814C23.9075 142.737 24.6079 142.651 25.3003 142.556ZM19.0709 125.39C17.5617 117.3 19.2124 111.588 22.7137 104.088C23.1156 103.227 22.2146 102.322 21.359 102.736L19.5178 103.625C19.5223 103.775 19.4922 103.932 19.4196 104.088C15.8811 111.668 14.2328 117.421 15.8258 125.649C15.9498 126.289 16.6555 126.622 17.2364 126.326L19.0709 125.39ZM14.4424 104.485C14.443 104.46 14.4445 104.435 14.447 104.409C15.6464 92.126 19.04 84.8578 27.9576 77.1622C28.7126 76.5106 28.1967 75.2261 27.2036 75.3182L24.6549 75.5544C25.098 75.9421 25.1912 76.7067 24.6635 77.1622C15.7459 84.8578 12.3522 92.126 11.1529 104.409C11.0779 105.177 11.8733 105.726 12.5684 105.39L14.4424 104.485Z" fill="#4D3A2A"/>
</g>
<path d="M33.9277 41.4858C31.9614 35.374 36.4362 25.2975 38.4741 21.2064C38.974 20.2027 40.2076 19.8685 41.1478 20.4796C44.9015 22.9196 53.6129 29.0891 55.5515 34.9392C58.1251 42.7059 49.5268 54.4694 49.5268 54.4694C49.5268 54.4694 36.3976 49.1631 33.9277 41.4858Z" fill="#CB9C6F"/>
<path d="M38.5002 42C35.4607 36.832 39.1641 28.8718 40.4885 26.3526C40.7286 25.8959 41.2755 25.7309 41.7319 25.9755C44.1816 27.2883 51.4581 31.5814 53.0002 37C54.9253 43.7648 52.1649 54.2099 52.1649 54.2099C52.1649 54.2099 41.2914 46.7459 38.5002 42Z" fill="#FEF2E7"/>
<path d="M126.732 41.4858C128.698 35.374 124.223 25.2975 122.185 21.2064C121.685 20.2027 120.452 19.8685 119.511 20.4796C115.758 22.9196 107.046 29.0891 105.108 34.9392C102.534 42.7059 111.132 54.4694 111.132 54.4694C111.132 54.4694 124.262 49.1631 126.732 41.4858Z" fill="#CB9C6F"/>
<path d="M122.159 42C125.198 36.832 121.495 28.8718 120.171 26.3526C119.931 25.8959 119.384 25.7309 118.927 25.9755C116.478 27.2883 109.201 31.5814 107.659 37C105.734 43.7648 108.494 54.2099 108.494 54.2099C108.494 54.2099 119.368 46.7459 122.159 42Z" fill="#FEF2E7"/>
<rect x="34" y="31" width="90" height="103.493" rx="40" fill="#CB9C6F"/>
<path fill-rule="evenodd" clip-rule="evenodd" d="M120.228 111.472C113.842 125.075 100.021 134.493 83.9999 134.493H73.9999C57.9791 134.493 44.158 125.075 37.772 111.472C42.1254 98.9711 54.015 90 67.9999 90H89.9999C103.985 90 115.874 98.9711 120.228 111.472Z" fill="#FEF2E7"/>
<path fill-rule="evenodd" clip-rule="evenodd" d="M120.228 111.472C113.842 125.075 100.021 134.493 83.9999 134.493H73.9999C57.9791 134.493 44.158 125.075 37.772 111.472C42.1254 98.9711 54.015 90 67.9999 90H89.9999C103.985 90 115.874 98.9711 120.228 111.472Z" fill="#FEF2E7"/>
<circle cx="59.5" cy="107.5" r="2.5" fill="#1A1A1A"/>
<circle cx="100.289" cy="107.5" r="2.5" fill="#1A1A1A"/>
<circle cx="50.1738" cy="113.87" r="4" fill="#FEB1AA"/>
<circle cx="108.174" cy="113.87" r="4" fill="#FEB1AA"/>
<ellipse cx="6.60326" cy="7.54658" rx="6.60326" ry="7.54658" transform="matrix(-0.965926 -0.258819 -0.258819 0.965926 60.6631 77.4181)" fill="#181818"/>
<circle cx="54.546" cy="81.2353" r="2.4287" transform="rotate(15 54.546 81.2353)" fill="white"/>
<circle cx="51.4132" cy="85.8744" r="1.45722" transform="rotate(15 51.4132 85.8744)" fill="white"/>
<ellipse cx="107.217" cy="82.9985" rx="6.60326" ry="7.54658" transform="rotate(-15 107.217 82.9985)" fill="#181818"/>
<circle cx="2.4287" cy="2.4287" r="2.4287" transform="matrix(-0.965926 0.258819 0.258819 0.965926 106.72 78.2608)" fill="white"/>
<circle cx="1.45722" cy="1.45722" r="1.45722" transform="matrix(-0.965926 0.258819 0.258819 0.965926 109.166 84.0897)" fill="white"/>
<path d="M101.804 123.326C98.7681 120.102 91.6992 120.005 91.6992 120.005C91.6992 120.005 91.3696 127.067 94.405 130.291C96.7512 132.783 101.507 133.407 103.546 133.562C104.084 133.603 104.525 133.187 104.517 132.647C104.486 130.603 104.15 125.818 101.804 123.326Z" fill="#34876F"/>
<path d="M81.9245 126.871C83.5535 123.614 89.6182 122.129 89.6182 122.129C89.6182 122.129 92.0663 127.873 90.4373 131.129C89.1779 133.647 85.2677 135.105 83.5578 135.638C83.0902 135.783 82.6054 135.541 82.4416 135.079C81.8424 133.392 80.6652 129.388 81.9245 126.871Z" fill="#34876F"/>
<path d="M64.6089 116.71C70.2584 127.068 90.3457 127.068 95.6814 116.71" stroke="#181818" stroke-width="1.94203" stroke-linecap="round" stroke-linejoin="round"/>
<path d="M52 32C61.5643 19.8765 80.6477 23.0478 95.1846 28.2348C107.7 32.7004 115.293 42.538 117.992 50.6382C120.852 57.5587 117.4 64.8646 110.492 66.7497C107.199 67.6484 103.654 67.2082 100.506 65.7594C98.6888 67.1449 96.3093 69 93.9723 69C89.6518 69 86.0902 65.1964 84.1106 61.1179C82.4082 63.449 80.3817 65.7594 77.959 65.7594C74.7293 65.7594 71.6782 62.3539 69.91 58.4997C67.9346 59.9208 62.796 62.1799 60.3444 62.1799C52.961 62.1799 47 53.9765 47 44.8674C47 40.6724 48.9132 35.9127 52 32Z" fill="#271B10"/>
<path d="M53.855 30.8803C62.4895 20.0253 80.3764 22.1474 93.5 26.7917C104.798 30.7901 111.653 39.5984 114.09 46.8511C116.672 53.0475 113.555 59.589 107.319 61.2768C104.346 62.0815 101.146 61.6874 98.3044 60.3902C96.6635 61.6306 94.5153 63.2917 92.4055 63.2917C88.5051 63.2917 85.2897 59.886 83.5026 56.2343C81.9657 58.3215 80.1363 60.3902 77.9491 60.3902C75.0334 60.3902 72.2789 57.341 70.6826 53.89C68.8993 55.1624 64.2603 57.1852 62.047 57.1852C55.3815 57.1852 50 49.84 50 41.6841C50 37.928 51.0684 34.3836 53.855 30.8803Z" fill="#4D3A2A"/>
</svg>
