<svg width="140" height="156" viewBox="0 0 140 156" fill="none" xmlns="http://www.w3.org/2000/svg">
<path d="M16.9274 46.4858C14.9612 40.374 19.436 30.2975 21.4738 26.2064C21.9738 25.2027 23.2074 24.8685 24.1475 25.4796C27.9013 27.9196 36.6127 34.0891 38.5512 39.9392C41.1249 47.7059 32.5266 59.4694 32.5266 59.4694C32.5266 59.4694 19.3973 54.1631 16.9274 46.4858Z" fill="#CB9C6F"/>
<path d="M21.4999 47C18.4605 41.832 22.1638 33.8718 23.4883 31.3526C23.7283 30.8959 24.2752 30.7309 24.7316 30.9755C27.1813 32.2883 34.4579 36.5814 35.9999 42C37.9251 48.7648 35.1646 59.2099 35.1646 59.2099C35.1646 59.2099 24.2911 51.7459 21.4999 47Z" fill="#FEF2E7"/>
<path d="M123.732 47.4858C125.698 41.374 121.223 31.2975 119.185 27.2064C118.685 26.2027 117.452 25.8685 116.511 26.4796C112.758 28.9196 104.046 35.0891 102.108 40.9392C99.534 48.7059 108.132 60.4694 108.132 60.4694C108.132 60.4694 121.262 55.1631 123.732 47.4858Z" fill="#CB9C6F"/>
<path d="M119.159 48C122.198 42.832 118.495 34.8718 117.171 32.3526C116.931 31.8959 116.384 31.7309 115.927 31.9755C113.478 33.2883 106.201 37.5814 104.659 43C102.734 49.7648 105.494 60.2099 105.494 60.2099C105.494 60.2099 116.368 52.7459 119.159 48Z" fill="#FEF2E7"/>
<path d="M27.4517 74.7145C22.0818 50.1996 40.7497 27 65.8458 27H72.7438C98.0508 27 116.875 50.3945 111.46 75.1154C110.822 78.0291 109.857 80.8616 108.583 83.5588L104.195 92.851C102.74 95.9332 101.751 99.2148 101.263 102.588L100.916 104.98C98.6679 120.492 85.3714 132 69.6974 132C53.8529 132 40.467 120.247 38.4176 104.535L38.2247 103.056C37.7449 99.3779 36.6531 95.8061 34.9943 92.4885L30.6909 83.8818C29.2359 80.9719 28.1479 77.8925 27.4517 74.7145Z" fill="#CB9C6F"/>
<ellipse cx="43" cy="91.4" rx="4" ry="2.4" fill="#FF946D"/>
<ellipse cx="96" cy="91.4" rx="4" ry="2.4" fill="#FF946D"/>
<path d="M75.8898 132.11C76.9224 136.127 81.8436 139.49 81.8436 139.49C81.8436 139.49 84.0796 134.291 83.047 130.274C82.0145 126.256 77.4859 122.535 77.4859 122.535C77.4859 122.535 74.8572 128.092 75.8898 132.11Z" fill="#ACCC5F"/>
<path d="M66.9987 130.455C64.405 133.039 58.8291 133.047 58.8291 133.047C58.8291 133.047 59.1873 127.806 61.781 125.222C64.3747 122.638 69.775 122.141 69.775 122.141C69.775 122.141 69.5924 127.871 66.9987 130.455Z" fill="#ACCC5F"/>
<path d="M75.6317 133.334C73.4676 138.392 66.1413 141.888 66.1413 141.888C66.1413 141.888 64.0048 134.663 66.1689 129.605C68.333 124.548 75.2741 120.545 75.2741 120.545C75.2741 120.545 77.7958 128.277 75.6317 133.334Z" fill="#BBD468"/>
<path d="M36 108.42C36 98.658 44.5817 91.2213 54.3134 91.9895C64.8279 92.8195 74.0651 92.8624 84.6198 92.0463C94.3675 91.2925 103 98.7165 103 108.493C103 116.802 96.6819 123.802 88.3911 124.346C75.0069 125.226 64.0584 125.213 50.6832 124.338C42.3547 123.793 36 116.766 36 108.42Z" fill="#FAEDE5"/>
<circle cx="51" cy="109" r="3" fill="#463424"/>
<circle cx="89" cy="109" r="3" fill="#463424"/>
<path d="M101.826 42.2774C99.5065 33.2107 87.5903 27 70.3267 27C57.2228 27 47.1998 29.6024 41.8112 35.5408C38.8985 38.2558 37 42.7026 37 47.7276C37 55.995 42.139 62.697 48.4783 62.697C51.1927 62.697 53.6871 61.4682 55.6522 59.4138C57.6173 61.4682 60.1116 62.697 62.8261 62.697C65.0615 62.697 67.1476 61.8636 68.9119 60.4221C70.9995 63.2445 73.9295 65 77.1739 65C80.148 65 82.8579 63.5249 84.8969 61.105C86.7685 62.833 89.0541 63.8485 91.5217 63.8485C97.861 63.8485 103 57.1465 103 48.8791C103 46.5096 102.578 44.2688 101.826 42.2774Z" fill="#4D3A2A"/>
<g style="mix-blend-mode:multiply">
<path fill-rule="evenodd" clip-rule="evenodd" d="M37.0756 46.0004C37.7322 53.4541 42.5869 59.2425 48.4783 59.2425C51.1927 59.2425 53.6871 58.0137 55.6522 55.9593C57.6172 58.0137 60.1116 59.2425 62.8261 59.2425C65.0615 59.2425 67.1476 58.4091 68.9119 56.9676C70.9995 59.79 73.9295 61.5455 77.1739 61.5455C80.148 61.5455 82.8579 60.0703 84.8969 57.6505C86.7685 59.3785 89.0541 60.394 91.5217 60.394C97.4131 60.394 102.268 54.6056 102.924 47.1519C102.974 47.7186 103 48.2949 103 48.8791C103 57.1465 97.861 63.8485 91.5217 63.8485C89.0541 63.8485 86.7685 62.833 84.8969 61.105C82.8579 63.5249 80.148 65 77.1739 65C73.9295 65 70.9995 63.2445 68.9119 60.4221C67.1476 61.8636 65.0615 62.697 62.8261 62.697C60.1116 62.697 57.6172 61.4682 55.6522 59.4138C53.6871 61.4682 51.1927 62.697 48.4783 62.697C42.139 62.697 37 55.995 37 47.7276C37 47.1435 37.0257 46.5671 37.0756 46.0004Z" fill="#4D3A2A"/>
</g>
<circle cx="88" cy="84" r="5" fill="#463424"/>
<circle cx="90" cy="83" r="2" fill="white"/>
<circle cx="52" cy="84" r="5" fill="#463424"/>
<circle cx="54" cy="83" r="2" fill="white"/>
<path d="M81.2748 28.9686C77.8712 27.2497 72.5473 28.5501 70.9369 29.0083C70.6714 29.0838 70.5307 29.3624 70.6275 29.6208C71.2146 31.1888 73.3279 36.2455 76.7315 37.9645C80.135 39.6835 85.459 38.383 87.0694 37.9248C87.3348 37.8493 87.4755 37.5707 87.3788 37.3123C86.7917 35.7443 84.6784 30.6876 81.2748 28.9686Z" fill="#BBD468"/>
<path d="M72.3559 38.9219C72.2247 35.6697 69.0881 32.2416 68.0162 31.1615C67.8218 30.9656 67.5128 30.9781 67.3348 31.189C66.3534 32.3519 63.5031 36.0215 63.6343 39.2738C63.7655 42.526 66.9021 45.9541 67.974 47.0342C68.1684 47.2301 68.4775 47.2176 68.6555 47.0067C69.6369 45.8438 72.4871 42.1741 72.3559 38.9219Z" fill="#BBD468"/>
</svg>
