<svg width="140" height="156" viewBox="0 0 140 156" fill="none" xmlns="http://www.w3.org/2000/svg">
<path fill-rule="evenodd" clip-rule="evenodd" d="M55.9991 36.965C48.8049 29.652 41.048 22.55 38.4704 23.0223C35.3582 23.5927 31.9613 38.2547 29.7248 50.007C21.79 57.2344 17 66.6089 17 76.8525C17 99.7122 40.8543 118.244 70.2801 118.244C99.7059 118.244 123.56 99.7122 123.56 76.8525C123.56 66.4888 118.657 57.0146 110.555 49.7536C108.318 38.0451 104.948 23.5886 101.858 23.0223C99.2849 22.5508 91.5523 29.6255 84.3695 36.9239C79.8816 35.9704 75.1574 35.4613 70.2801 35.4613C65.3334 35.4613 60.5441 35.985 55.9991 36.965Z" fill="#E3A13F"/>
<g style="mix-blend-mode:multiply">
<path fill-rule="evenodd" clip-rule="evenodd" d="M56.1053 36.9422L55.0681 50.4256L65.0681 42.9256L71.5681 57.9256L77.5681 42.9256L86.0681 50.4256L84.3362 36.9169C79.8583 35.9679 75.1453 35.4613 70.2801 35.4613C65.3719 35.4613 60.6187 35.9769 56.1053 36.9422Z" fill="#EBEBEB"/>
</g>
<g style="mix-blend-mode:multiply">
<path fill-rule="evenodd" clip-rule="evenodd" d="M121.954 66.7265L107.23 72.5383L123.425 79.8204C123.515 78.8401 123.56 77.8504 123.56 76.8525C123.56 73.3592 123.003 69.9669 121.954 66.7265ZM123.088 82.3896L106.682 83.4906L120.285 91.1728C121.613 88.3747 122.564 85.4346 123.088 82.3896ZM119.06 93.5275L104.068 96.1893L112.418 102.186C115.061 99.5369 117.299 96.6322 119.06 93.5275Z" fill="#E4E4E4"/>
</g>
<g style="mix-blend-mode:multiply">
<path fill-rule="evenodd" clip-rule="evenodd" d="M27.742 101.78L35.5272 96.1893L21.6092 93.7182C23.2628 96.5938 25.3264 99.296 27.742 101.78ZM20.0737 90.7415L32.9137 83.4906L17.484 82.4552C17.9831 85.3208 18.8598 88.0933 20.0737 90.7415ZM17.0995 79.4025L32.3652 72.5384L18.4984 67.0649C17.519 70.2029 17 73.4806 17 76.8525C17 77.7088 17.0335 78.5591 17.0995 79.4025Z" fill="#E4E4E4"/>
</g>
<path d="M75.0749 85.2618C75.0749 86.9641 73.1035 88.3441 70.6716 88.3441C68.2397 88.3441 66.2683 86.9641 66.2683 85.2618C66.2683 83.5594 68.2397 81.7391 70.6716 81.7391C73.1035 81.7391 75.0749 83.5594 75.0749 85.2618Z" fill="#0F0E0F"/>
<path d="M70.6715 83.9408V90.1054C70.6715 92.0509 69.0944 93.628 67.1489 93.628H66.048C64.7105 93.628 63.6262 92.5438 63.6262 91.2062V91.2062" stroke="#1C1B1C" stroke-width="1.32099" stroke-linecap="round" stroke-linejoin="round"/>
<path d="M70.6715 83.9408V90.1054C70.6715 92.0509 72.2486 93.628 74.1941 93.628H75.295C76.6325 93.628 77.7168 92.5438 77.7168 91.2062V91.2062" stroke="#1C1B1C" stroke-width="1.32099" stroke-linecap="round" stroke-linejoin="round"/>
<circle cx="47.5052" cy="72.0953" r="10.6903" fill="white"/>
<mask id="mask0_36_643" style="mask-type:alpha" maskUnits="userSpaceOnUse" x="36" y="61" width="23" height="22">
<circle cx="47.5052" cy="72.0953" r="10.6903" fill="#FEDE77"/>
</mask>
<g mask="url(#mask0_36_643)">
<circle cx="50.0681" cy="72.9256" r="8" fill="#1C1B1C"/>
</g>
<circle cx="10.6903" cy="10.6903" r="10.6903" transform="matrix(-1 0 0 1 103.321 61.4051)" fill="white"/>
<mask id="mask1_36_643" style="mask-type:alpha" maskUnits="userSpaceOnUse" x="81" y="61" width="23" height="22">
<circle cx="10.6903" cy="10.6903" r="10.6903" transform="matrix(-1 0 0 1 103.321 61.4051)" fill="white"/>
</mask>
<g mask="url(#mask1_36_643)">
<circle cx="8" cy="8" r="8" transform="matrix(-1 0 0 1 98.0681 64.9256)" fill="#0F0E0F"/>
</g>
<g style="mix-blend-mode:multiply">
<path d="M34.055 46.5014C35.3552 40.0671 36.614 35.7398 39.2203 29.0846C39.4191 28.5769 40.0308 28.3719 40.4937 28.66C45.5431 31.8032 48.3206 34.2111 52.1503 38.334C52.5938 38.8116 52.3747 39.5877 51.7488 39.7694C45.1236 41.6926 41.007 42.9721 35.5283 47.3679C34.8737 47.893 33.8888 47.3239 34.055 46.5014Z" fill="#EBEBEB"/>
<path d="M105.387 45.8752C104.723 39.2793 104.092 35.3577 101.353 28.6076C101.148 28.1047 100.537 27.9091 100.079 28.2004C95.5014 31.1123 92.8884 33.2739 88.6012 37.2824C88.1037 37.7475 88.3024 38.5777 88.955 38.7725C95.4591 40.7134 98.5372 42.0944 103.913 46.6348C104.524 47.1505 105.467 46.6705 105.387 45.8752Z" fill="#EBEBEB"/>
</g>
<circle cx="42.0681" cy="90.9256" r="6" fill="#FFCEB9"/>
<circle cx="98.0681" cy="90.9256" r="6" fill="#FFCEB9"/>
<path fill-rule="evenodd" clip-rule="evenodd" d="M63.2864 118.982C65.3288 118.982 67.1846 118.273 68.6607 117.442C68.2774 119.541 68.3094 121.428 68.3395 123.21L68.346 123.604C68.3902 126.435 68.3573 129.057 66.7557 132.307C66.478 132.87 66.7096 133.552 67.273 133.83C67.8364 134.107 68.5183 133.876 68.796 133.312C70.6478 129.556 70.6658 126.475 70.6204 123.568L70.615 123.233C70.5769 120.914 70.5408 118.714 71.3008 116.166C72.6985 118.41 73.3463 120.614 73.9966 122.837L74.0139 122.897C74.7699 125.481 75.5551 128.165 77.7015 130.573C78.1195 131.042 78.8384 131.083 79.3073 130.666C79.7762 130.248 79.8175 129.529 79.3995 129.06C77.6233 127.067 76.9542 124.846 76.1797 122.199L76.1602 122.132C75.7884 120.861 75.3929 119.509 74.8231 118.108C76.0226 118.619 77.3885 118.982 78.8498 118.982C81.2138 118.982 83.4098 118.523 85.0573 117.73C86.6239 116.975 88.0681 115.714 88.0681 113.954C88.0681 112.194 86.6239 110.932 85.0573 110.178C83.4098 109.385 81.2138 108.926 78.8498 108.926C75.4313 108.926 72.5355 110.912 71.0681 112.134C69.6007 110.912 66.7049 108.926 63.2864 108.926C60.9225 108.926 58.7264 109.385 57.0789 110.178C55.5123 110.932 54.0681 112.194 54.0681 113.954C54.0681 115.714 55.5123 116.975 57.0789 117.73C58.7264 118.523 60.9225 118.982 63.2864 118.982ZM58.0657 112.227C56.7076 112.881 56.3428 113.565 56.3428 113.954C56.3428 114.343 56.7076 115.026 58.0657 115.68C59.343 116.295 61.1874 116.707 63.2864 116.707C65.9495 116.707 68.3536 115.08 69.6465 113.997L69.6722 113.932C68.3856 112.85 65.9673 111.2 63.2864 111.2C61.1874 111.2 59.343 111.612 58.0657 112.227ZM72.7214 114.187C72.6533 114.089 72.5838 113.99 72.5128 113.891C73.8111 112.809 76.2024 111.2 78.8498 111.2C80.9488 111.2 82.7933 111.612 84.0705 112.227C85.4286 112.881 85.7935 113.565 85.7935 113.954C85.7935 114.343 85.4286 115.026 84.0705 115.68C82.7933 116.295 80.9488 116.707 78.8498 116.707C76.3384 116.707 74.0574 115.26 72.7214 114.187Z" fill="#ED653B"/>
</svg>
