<svg width="140" height="156" viewBox="0 0 140 156" fill="none" xmlns="http://www.w3.org/2000/svg">
<path d="M8.92766 52.4858C6.9614 46.374 11.4362 36.2975 13.4741 32.2064C13.974 31.2027 15.2076 30.8685 16.1478 31.4796C19.9015 33.9196 28.6129 40.0891 30.5515 45.9392C33.1251 53.7059 24.5268 65.4694 24.5268 65.4694C24.5268 65.4694 11.3976 60.1631 8.92766 52.4858Z" fill="#CB9C6F"/>
<path d="M13.5002 53C10.4607 47.832 14.1641 39.8718 15.4885 37.3526C15.7286 36.8959 16.2755 36.7309 16.7319 36.9755C19.1816 38.2883 26.4581 42.5814 28.0002 48C29.9253 54.7648 27.1649 65.2099 27.1649 65.2099C27.1649 65.2099 16.2914 57.7459 13.5002 53Z" fill="#FEF2E7"/>
<path d="M130.732 54.4858C132.698 48.374 128.223 38.2975 126.185 34.2064C125.685 33.2027 124.452 32.8685 123.511 33.4796C119.758 35.9196 111.046 42.0891 109.108 47.9392C106.534 55.7059 115.132 67.4694 115.132 67.4694C115.132 67.4694 128.262 62.1631 130.732 54.4858Z" fill="#CB9C6F"/>
<path d="M126.159 55C129.198 49.832 125.495 41.8718 124.171 39.3526C123.931 38.8959 123.384 38.7309 122.927 38.9755C120.478 40.2883 113.201 44.5814 111.659 50C109.734 56.7648 112.494 67.2099 112.494 67.2099C112.494 67.2099 123.368 59.7459 126.159 55Z" fill="#FEF2E7"/>
<path d="M69.8901 64.0793C72.3892 58.5229 77.4364 54.7246 83.2558 54.7246C89.5495 54.7246 94.9401 59.1674 97.1809 65.4721C98.9172 64.6676 100.814 64.2247 102.801 64.2247C110.764 64.2247 117.281 71.3359 117.803 80.3317C125.083 82.9907 130.174 89.0858 130.174 96.1798C130.174 101.007 127.817 105.372 124.016 108.506C124.975 110.78 125.513 113.333 125.513 116.029C125.513 125.569 118.782 133.302 110.478 133.302C108.491 133.302 106.594 132.859 104.857 132.055C102.617 138.359 97.2261 142.802 90.9323 142.802C87.0865 142.802 83.5779 141.143 80.9191 138.414C78.2301 141.312 74.613 143.087 70.6352 143.087C66.3215 143.087 62.4322 141 59.6904 137.657C56.9639 140.833 53.1743 142.802 48.9845 142.802C42.5855 142.802 37.1202 138.21 34.9497 131.737C33.0432 132.742 30.9222 133.302 28.6874 133.302C20.3838 133.302 13.6523 125.569 13.6523 116.029C13.6523 113.267 14.2166 110.656 15.22 108.341C10.6483 105.249 7.82617 100.999 7.82617 96.3098C7.82617 89.8213 13.229 84.1757 21.1934 81.2708C21.2992 71.8358 27.9895 64.2247 36.2272 64.2247C38.4621 64.2247 40.583 64.7849 42.4895 65.7897C44.6601 59.3172 50.1254 54.7246 56.5244 54.7246C62.3437 54.7246 67.3909 58.5229 69.8901 64.0793Z" fill="#463424"/>
<g style="mix-blend-mode:multiply">
<path fill-rule="evenodd" clip-rule="evenodd" d="M7.92317 94.8098C7.85895 95.3041 7.82617 95.8044 7.82617 96.3098C7.82617 100.702 10.3014 104.707 14.3708 107.738C14.6025 106.91 14.8871 106.109 15.22 105.341C11.141 102.582 8.45481 98.9018 7.92317 94.8098ZM13.7082 114.529C13.6712 115.023 13.6523 115.524 13.6523 116.029C13.6523 125.569 20.3838 133.302 28.6874 133.302C30.9222 133.302 33.0432 132.742 34.9497 131.737C37.1202 138.21 42.5855 142.802 48.9845 142.802C53.1743 142.802 56.9639 140.833 59.6904 137.657C62.4322 141 66.3215 143.087 70.6352 143.087C74.613 143.087 78.23 141.312 80.9191 138.414C83.5779 141.143 87.0865 142.802 90.9323 142.802C97.2261 142.802 102.617 138.359 104.857 132.055C106.594 132.859 108.491 133.302 110.478 133.302C118.782 133.302 125.513 125.569 125.513 116.029C125.513 115.524 125.494 115.023 125.457 114.529C124.795 123.366 118.342 130.302 110.478 130.302C108.491 130.302 106.594 129.859 104.857 129.055C102.617 135.359 97.2261 139.802 90.9323 139.802C87.0865 139.802 83.5779 138.143 80.9191 135.414C78.23 138.312 74.613 140.087 70.6352 140.087C66.3215 140.087 62.4322 138 59.6904 134.657C56.9639 137.833 53.1743 139.802 48.9845 139.802C42.5855 139.802 37.1202 135.21 34.9497 128.737C33.0432 129.742 30.9222 130.302 28.6874 130.302C20.8236 130.302 14.3699 123.366 13.7082 114.529ZM124.814 107.81C128.144 104.741 130.174 100.659 130.174 96.1798C130.174 95.6745 130.148 95.1742 130.098 94.6798C129.665 98.9076 127.419 102.7 124.016 105.506C124.328 106.246 124.596 107.016 124.814 107.81Z" fill="#463424"/>
</g>
<rect x="23.1006" y="25.9705" width="92.4406" height="103.493" rx="40.1916" fill="#CB9C6F"/>
<path fill-rule="evenodd" clip-rule="evenodd" d="M109.062 111.163C101.894 122.18 89.4726 129.464 75.3499 129.464H63.2924C49.1696 129.464 36.7482 122.18 29.5801 111.163C35.2767 102.801 44.8754 97.3105 55.7565 97.3105H82.8858C93.7669 97.3105 103.366 102.801 109.062 111.163Z" fill="#7F5939"/>
<ellipse cx="49.2253" cy="108.899" rx="3.01437" ry="4.52155" fill="#1A1A1A"/>
<ellipse cx="89.4167" cy="108.899" rx="3.01437" ry="4.52155" fill="#1A1A1A"/>
<ellipse cx="37.4986" cy="95.724" rx="4.35015" ry="2.53396" fill="#FFCEB9"/>
<ellipse cx="101.663" cy="95.724" rx="4.35015" ry="2.53396" fill="#FFCEB9"/>
<ellipse cx="6.7971" cy="7.76812" rx="6.7971" ry="7.76812" transform="matrix(-1 0 0 1 49.5796 76.1087)" fill="#181818"/>
<ellipse cx="40.7833" cy="81.4236" rx="2.39898" ry="2.86194" fill="white"/>
<ellipse cx="45.2802" cy="86.3921" rx="1.29827" ry="1.28884" fill="white"/>
<ellipse cx="6.7971" cy="7.76812" rx="6.7971" ry="7.76812" transform="matrix(-1 0 0 1 103.483 76.1087)" fill="#181818"/>
<ellipse cx="94.6871" cy="81.4236" rx="2.39898" ry="2.86194" fill="white"/>
<ellipse cx="99.184" cy="86.3921" rx="1.29827" ry="1.28884" fill="white"/>
<path fill-rule="evenodd" clip-rule="evenodd" d="M70.1565 17.8875C72.0407 13.7965 75.8461 11 80.2338 11C84.9791 11 89.0434 14.2711 90.7329 18.913C92.042 18.3206 93.4723 17.9946 94.9705 17.9946C100.974 17.9946 105.888 23.2302 106.281 29.8536C111.77 31.8112 115.609 36.2989 115.609 41.522C115.609 45.0762 113.831 48.2899 110.966 50.5975C111.689 52.2718 112.094 54.1509 112.094 56.1362C112.094 63.1599 107.019 68.8537 100.758 68.8537C99.2603 68.8537 97.8299 68.5276 96.5208 67.9353C94.8313 72.5772 90.767 75.8483 86.0217 75.8483C83.122 75.8483 80.4767 74.6269 78.4721 72.6178C76.4446 74.7513 73.7175 76.058 70.7183 76.058C67.466 76.058 64.5335 74.5214 62.4663 72.06C60.4106 74.3987 57.5534 75.8483 54.3944 75.8483C49.5698 75.8483 45.4491 72.467 43.8126 67.7015C42.3752 68.4413 40.7761 68.8537 39.0911 68.8537C32.8304 68.8537 27.7551 63.1599 27.7551 56.1362C27.7551 54.1026 28.1806 52.1805 28.9371 50.4758C25.4901 48.1989 23.3623 45.0704 23.3623 41.6177C23.3623 36.8404 27.4358 32.6838 33.4408 30.545C33.5205 23.5983 38.5648 17.9946 44.7758 17.9946C46.4608 17.9946 48.0599 18.407 49.4974 19.1468C51.1339 14.3813 55.2545 11 60.0792 11C64.4668 11 68.2722 13.7965 70.1565 17.8875Z" fill="#4D3A2A"/>
<g style="mix-blend-mode:multiply">
<path fill-rule="evenodd" clip-rule="evenodd" d="M23.5901 39.6761C23.4401 40.309 23.3623 40.9574 23.3623 41.6177C23.3623 44.7513 25.115 47.6178 28.0157 49.823C28.2163 48.7612 28.5284 47.7475 28.9371 46.7991C26.1493 44.9027 24.2244 42.4325 23.5901 39.6761ZM27.8588 54.4082C27.7904 54.9732 27.7551 55.5501 27.7551 56.1362C27.7551 63.1599 32.8303 68.8537 39.091 68.8537C40.776 68.8537 42.3752 68.4412 43.8126 67.7014C45.4491 72.467 49.5698 75.8483 54.3944 75.8483C57.5534 75.8483 60.4106 74.3987 62.4663 72.06C64.5335 74.5214 67.466 76.058 70.7183 76.058C73.7175 76.058 76.4446 74.7513 78.4721 72.6177C80.4767 74.6269 83.1221 75.8483 86.0217 75.8483C90.767 75.8483 94.8314 72.5772 96.5208 67.9353C97.8299 68.5276 99.2603 68.8537 100.758 68.8537C107.019 68.8537 112.094 63.1599 112.094 56.1362C112.094 55.5501 112.059 54.9733 111.991 54.4082C111.239 60.7997 106.497 65.7256 100.758 65.7256C99.2603 65.7256 97.8299 65.3898 96.5208 64.7798C94.8313 69.5603 90.767 72.929 86.0217 72.929C83.1221 72.929 80.4767 71.6712 78.4721 69.602C76.4446 71.7993 73.7175 73.1449 70.7183 73.1449C67.466 73.1449 64.5335 71.5625 62.4663 69.0276C60.4106 71.4361 57.5534 72.929 54.3944 72.929C49.5698 72.929 45.4491 69.4467 43.8126 64.539C42.3752 65.3009 40.776 65.7256 39.091 65.7256C33.3528 65.7256 28.6104 60.7997 27.8588 54.4082ZM111.836 49.8368C114.187 47.6073 115.609 44.7008 115.609 41.5219C115.609 40.8613 115.547 40.2124 115.429 39.5789C114.91 42.4364 113.299 44.9896 110.966 46.9244C111.35 47.8407 111.645 48.8166 111.836 49.8368Z" fill="#4D3A2A"/>
</g>
<path d="M81.172 124.537C77.2721 122.27 70.4859 123.98 70.4859 123.98C70.4859 123.98 72.3583 130.724 76.2582 132.991C80.1581 135.258 86.9443 133.547 86.9443 133.547C86.9443 133.547 85.072 126.804 81.172 124.537Z" fill="#34876F"/>
<path d="M79.2898 140.083C81.7967 138.148 86.7353 138.793 86.7353 138.793C86.7353 138.793 86.1081 143.734 83.6012 145.669C81.0943 147.604 76.1557 146.958 76.1557 146.958C76.1557 146.958 76.7829 142.018 79.2898 140.083Z" fill="#34876F"/>
<path d="M54.4346 116.841C60.0841 127.198 80.1714 127.198 85.507 116.841" stroke="#181818" stroke-width="1.94203" stroke-linecap="round" stroke-linejoin="round"/>
<path d="M54.312 45.081C58.5515 42.317 60.2751 34.6737 60.2751 34.6737C60.2751 34.6737 52.586 33.1669 48.3465 35.9309C44.1069 38.6949 42.3834 46.3382 42.3834 46.3382C42.3834 46.3382 50.0724 47.845 54.312 45.081Z" fill="#34876F"/>
<path d="M82.1306 53.3081C78.0185 49.5722 69.3469 49.9453 69.3469 49.9453C69.3469 49.9453 69.805 58.6128 73.9172 62.3487C78.0293 66.0846 86.7009 65.7116 86.7009 65.7116C86.7009 65.7116 86.2428 57.0441 82.1306 53.3081Z" fill="#34876F"/>
</svg>
