<svg width="140" height="156" viewBox="0 0 140 156" fill="none" xmlns="http://www.w3.org/2000/svg">
<ellipse cx="70" cy="77.9806" rx="49.8349" ry="50.9806" fill="white"/>
<path fill-rule="evenodd" clip-rule="evenodd" d="M118.32 90.5048C119.309 86.4978 119.835 82.302 119.835 77.9806C119.835 49.8248 97.5231 27 70 27C42.4769 27 20.165 49.8248 20.165 77.9806C20.165 82.302 20.6906 86.4978 21.68 90.5048C27.1367 68.9011 46.7012 52.9126 70 52.9126C93.2988 52.9126 112.863 68.9011 118.32 90.5048Z" fill="#E3A13F"/>
<path d="M100.939 68.9383C109.751 65.7868 114.839 64.3659 124.275 62.684" stroke="#323232" stroke-width="2.5" stroke-linecap="round" stroke-linejoin="round"/>
<path d="M100.087 85.1438C109.24 87.6245 114.272 89.3765 123.002 93.3899" stroke="#323232" stroke-width="2.5" stroke-linecap="round" stroke-linejoin="round"/>
<path d="M104.184 77.2693C112.612 76.7733 116.727 77.5422 125.143 78.5967" stroke="#323232" stroke-width="2.5" stroke-linecap="round" stroke-linejoin="round"/>
<path d="M41.2345 68.9383C32.4229 65.7868 27.335 64.3659 17.8993 62.684" stroke="#323232" stroke-width="2.5" stroke-linecap="round" stroke-linejoin="round"/>
<path d="M42.0868 85.1438C32.934 87.6245 27.9016 89.3765 19.1721 93.3899" stroke="#323232" stroke-width="2.5" stroke-linecap="round" stroke-linejoin="round"/>
<path d="M37.9897 77.2693C29.5621 76.7733 25.447 77.5422 17.0312 78.5967" stroke="#323232" stroke-width="2.5" stroke-linecap="round" stroke-linejoin="round"/>
<path d="M70.1728 61.7961C70.1728 70.1624 64.1539 76.8621 56.8252 76.8621C49.4965 76.8621 43.4776 70.1624 43.4776 61.7961C43.4776 53.4298 49.4965 46.7301 56.8252 46.7301C64.1539 46.7301 70.1728 53.4298 70.1728 61.7961Z" fill="white" stroke="#323232" stroke-width="0.8"/>
<circle cx="62.5535" cy="61.2233" r="4.58252" fill="#323232"/>
<circle cx="64.2719" cy="60.6505" r="1.71845" fill="white"/>
<path d="M70.9727 61.7961C70.9727 70.1624 76.9916 76.8621 84.3203 76.8621C91.649 76.8621 97.6679 70.1624 97.6679 61.7961C97.6679 53.4298 91.649 46.7301 84.3203 46.7301C76.9916 46.7301 70.9727 53.4298 70.9727 61.7961Z" fill="white" stroke="#323232" stroke-width="0.8"/>
<circle cx="4.58252" cy="4.58252" r="4.58252" transform="matrix(-1 0 0 1 83.1746 56.6408)" fill="#323232"/>
<circle cx="1.71845" cy="1.71845" r="1.71845" transform="matrix(-1 0 0 1 78.592 58.9321)" fill="white"/>
<circle cx="70.5729" cy="72.8252" r="8.01942" fill="#D63A26"/>
<circle cx="69.4272" cy="70.534" r="2.29126" fill="white"/>
<path d="M99.7701 89.6994C100.951 89.7907 101.874 90.7784 101.787 91.9598C101.553 95.1541 100.786 98.2958 99.5095 101.263C97.955 104.877 95.6766 108.16 92.8043 110.926C89.932 113.692 86.5221 115.886 82.7692 117.383C79.0164 118.88 74.9941 119.65 70.932 119.65C66.87 119.65 62.8477 118.88 59.0949 117.383C55.342 115.886 51.9321 113.692 49.0598 110.926C46.1875 108.16 43.909 104.877 42.3546 101.263C41.0767 98.2919 40.3086 95.1458 40.0758 91.9473C39.9901 90.771 40.9036 89.7858 42.079 89.6887C63.6478 87.9061 76.959 87.9368 99.7701 89.6994Z" fill="#D63A26"/>
<path fill-rule="evenodd" clip-rule="evenodd" d="M94.6509 107.915C94.6653 108.609 94.4015 109.279 93.928 109.786C93.5643 110.175 93.1896 110.555 92.8043 110.926C89.932 113.692 86.522 115.886 82.7692 117.383C79.0163 118.88 74.9941 119.651 70.932 119.651C66.87 119.651 62.8477 118.88 59.0948 117.383C55.342 115.886 51.9321 113.692 49.0598 110.926C48.5543 110.44 48.0672 109.937 47.5992 109.419C47.1307 108.9 46.8765 108.221 46.9126 107.523C47.4444 97.2246 56.672 91.0106 69.2808 98.0646C70.2941 98.6316 71.5444 98.6356 72.5559 98.0655C85.9604 90.5106 94.4275 97.1213 94.6509 107.915Z" fill="#EA750D"/>
</svg>
