<svg width="140" height="156" viewBox="0 0 140 156" fill="none" xmlns="http://www.w3.org/2000/svg">
<g clip-path="url(#clip0_51_57)">
<rect x="15" y="22.9913" width="111" height="108.865" rx="44.8891" fill="white"/>
<path fill-rule="evenodd" clip-rule="evenodd" d="M75.5089 22.9913H81.1109C105.902 22.9913 126 43.0889 126 67.8805V86.9677C126 87.5915 125.987 88.2123 125.962 88.8299C121.723 90.233 117.199 90.9913 112.5 90.9913C88.4756 90.9913 69 71.1648 69 46.7076C69 38.1533 71.3825 29.9903 75.5089 22.9913Z" fill="#FFD374"/>
<path d="M56.5078 19.4913C49.0787 10.5839 7.89282 26.4116 10.5078 37.9913C13.1227 49.5711 29.0078 73.9914 41.5078 66.4913C54.0078 58.9913 63.9368 28.3988 56.5078 19.4913Z" fill="#F8B930"/>
<path d="M82.6441 19.4913C90.0731 10.5839 131.259 26.4116 128.644 37.9913C126.029 49.5711 110.144 73.9914 97.6441 66.4913C85.1441 58.9913 75.2151 28.3988 82.6441 19.4913Z" fill="#F8B930"/>
<circle cx="7.19408" cy="7.19408" r="7.19408" transform="matrix(-1 0 0 1 102 67.9913)" fill="#3A211F"/>
<circle cx="1.59869" cy="1.59869" r="1.59869" transform="matrix(-1 0 0 1 99.1973 71.9913)" fill="white"/>
<path d="M54 78.9913C54 77.9408 53.7931 76.9005 53.391 75.9299C52.989 74.9593 52.3997 74.0774 51.6569 73.3345C50.914 72.5916 50.0321 72.0023 49.0615 71.6003C48.0909 71.1983 47.0506 70.9913 46 70.9913C44.9494 70.9913 43.9091 71.1983 42.9385 71.6003C41.9679 72.0023 41.086 72.5916 40.3431 73.3345C39.6003 74.0774 39.011 74.9593 38.609 75.9299C38.2069 76.9005 38 77.9408 38 78.9913" stroke="#3A211F" stroke-width="2.5" stroke-linecap="round" stroke-linejoin="round"/>
<ellipse cx="69.9634" cy="101.491" rx="29.9634" ry="19.5" fill="#F2F2F2"/>
<path d="M70.5 91.5047V99.5378C70.5 102.161 72.6266 104.288 75.25 104.288H75.9136C78.1705 104.288 80 102.458 80 100.201V100.201" stroke="#3A211F" stroke-width="2.5" stroke-linecap="round" stroke-linejoin="round"/>
<path d="M70.5 91.5047V99.5378C70.5 102.161 68.3734 104.288 65.75 104.288H65.0864C62.8295 104.288 61 102.458 61 100.201V100.201" stroke="#3A211F" stroke-width="2.5" stroke-linecap="round" stroke-linejoin="round"/>
<path d="M77.3658 90.2867C77.3658 88.4667 74.292 86.9913 70.5004 86.9913C66.7087 86.9913 63.635 88.4667 63.635 90.2867C63.635 92.1067 66.7088 96.4312 70.5004 96.4312C74.2921 96.4312 77.3658 92.1067 77.3658 90.2867Z" fill="#3A211F"/>
<circle cx="66.6386" cy="89.9949" r="1.28726" fill="white"/>
<ellipse cx="37.6937" cy="90.4913" rx="7.69369" ry="4.5" fill="#FEB1AA"/>
<ellipse cx="101.081" cy="90.4913" rx="7.69369" ry="4.5" fill="#FEB1AA"/>
<path d="M54.1859 143.274L54.1896 143.271C57.0151 143.282 59.4374 141.271 59.9442 138.493L81.6614 138.526C82.2695 141.707 85.34 143.803 88.5196 143.205C91.6993 142.608 93.7838 139.545 93.1758 136.363C92.9474 135.167 92.3529 134.071 91.475 133.227C92.6343 132.133 93.2893 130.608 93.2853 129.011C93.3537 125.775 90.7854 123.087 87.549 123.008C84.6293 122.936 82.1095 125.025 81.6399 127.906L59.9263 127.869C59.3183 124.687 56.2478 122.592 53.0681 123.19C49.8886 123.787 47.8039 126.85 48.412 130.032C48.6405 131.228 49.235 132.324 50.1129 133.168C47.7761 135.4 47.6978 139.111 49.9382 141.455C51.0476 142.616 52.5827 143.273 54.1859 143.274Z" fill="#D3D3D3"/>
</g>
<defs>
<clipPath id="clip0_51_57">
<rect width="140" height="156" rx="4" fill="white"/>
</clipPath>
</defs>
</svg>
